<svg width="189" height="56" viewBox="0 0 189 56" fill="none" xmlns="http://www.w3.org/2000/svg">
<path d="M181.502 0H188.924L180.023 31.0401H172.601L181.502 0Z" fill="#31A040"/>
<path d="M161.746 31.04L162.31 29.0718C160.503 30.4659 158.038 31.327 155.563 31.327C149.336 31.327 145.36 27.6366 147.866 19.6408C150.439 11.563 156.81 7.79065 162.54 8.03668C164.979 8.15969 166.721 9.2258 167.625 10.5379L168.212 8.48773H175.592L169.125 31.04H161.746ZM158.258 25.0534C160.775 25.0534 163.024 23.9052 164.253 21.404C164.342 21.24 164.608 20.4609 164.656 20.2969C165.761 16.4425 164.239 14.3103 161.509 14.3103C159.241 14.1873 156.304 15.9504 155.246 19.6408C154.223 23.2082 155.656 25.0534 158.258 25.0534Z" fill="#31A040"/>
<path d="M122.55 19.887C124.713 12.3422 130.831 7.66772 137.742 7.66772C144.823 7.66772 147.483 12.6702 145.39 19.969L144.573 22.2242H129.174C128.745 24.3154 130.506 25.4635 132.937 25.4635C135.155 25.4635 136.938 24.6024 138.762 23.0033L142.429 27.0217C138.96 30.343 135.113 31.8602 130.804 31.8602C123.937 31.8602 120.305 27.2677 122.55 19.887ZM139.11 16.7296C139.352 14.8435 137.905 13.9414 135.985 13.9414C133.852 13.9414 131.938 14.9665 131.176 16.7296H139.11Z" fill="#31A040"/>
<path d="M114.021 15.8275C115.537 10.538 114.349 7.09365 109.913 7.09365H104.837L99.8282 24.5614H104.904C109.341 24.5614 112.48 21.1991 114.021 15.8275ZM121.187 15.8275C118.452 25.2175 111.931 30.999 101.298 31.0401H90.5056L99.2298 0.61499H110.022C120.632 0.655996 123.825 6.47858 121.187 15.8275Z" fill="#31A040"/>
<path d="M73.7924 24.2334L71.8407 31.0401H64.4185L73.1427 0.61499H80.565L76.4145 15.0894L84.706 8.48779H93.4932L82.5546 17.1807L88.1355 31.0401H79.4762L76.125 22.3472L73.7924 24.2334Z" fill="#31A040"/>
<path d="M34.8521 8.48779H42.2316L35.7649 31.0401H28.3853L34.8521 8.48779ZM42.9136 6.10955H35.534L37.1095 0.61499H44.4891L42.9136 6.10955Z" fill="#31A040"/>
<path d="M9.46391 24.8894L7.70025 31.0401H0.235352L8.9596 0.61499H16.4245L12.5327 14.1874L26.5341 0.61499H34.8095L21.6361 13.5313L26.4265 31.0401H18.3218L14.9669 19.6819L9.46391 24.8894Z" fill="#31A040"/>
<mask id="mask0_41_382" style="mask-type:luminance" maskUnits="userSpaceOnUse" x="34" y="4" width="40" height="32">
<path d="M73.1046 4.78394H34.2842V35.5443H73.1046V4.78394Z" fill="white"/>
<path d="M41.8328 19.6819C43.9962 12.1372 50.3539 7.66772 58.3307 7.66772C62.1272 7.66772 65.0664 9.02085 66.891 12.1782L61.11 17.0166C59.7357 14.9664 58.5823 14.2284 56.3215 14.2284C53.5371 14.2694 50.1412 16.4426 49.2124 19.6819C48.26 23.0033 50.3242 25.1765 53.2675 25.1765C55.6989 25.1765 57.5829 24.1104 59.7404 22.3882L62.7157 27.1857C59.2392 30.384 55.268 31.7371 51.4289 31.7371C43.611 31.7781 39.54 27.6777 41.8328 19.6819Z" fill="black"/>
</mask>
<g mask="url(#mask0_41_382)">
<path d="M66.8908 12.1782L68.6072 14.0745L70.8183 12.2239L69.7265 10.3348L66.8908 12.1782ZM61.1098 17.0166L58.3421 18.9691L59.9296 21.3373L62.8261 18.913L61.1098 17.0166ZM56.3213 14.2284L57.1482 11.3446H57.1252L57.102 11.3449L56.3213 14.2284ZM59.7402 22.3882L62.5449 20.4932L61.0466 18.0773L58.1045 20.4259L59.7402 22.3882ZM62.7155 27.1857L64.5892 28.9439L66.6246 27.0714L65.5202 25.2906L62.7155 27.1857ZM51.4287 31.7371L52.2556 28.8534H52.2474H52.2392L51.4287 31.7371ZM44.8326 19.6819C45.7304 16.5511 47.3935 14.3605 49.3623 12.9406C51.3585 11.5009 54.0894 10.5515 57.5036 10.5515L59.1574 4.78394C54.5948 4.78394 50.1585 6.06923 46.4408 8.7505C42.6957 11.4514 40.0983 15.268 38.8326 19.6819H44.8326ZM57.5036 10.5515C60.4316 10.5515 62.6213 11.5403 64.0552 14.0215L69.7265 10.3348C67.5111 6.50137 63.8223 4.78394 59.1574 4.78394L57.5036 10.5515ZM65.1745 10.2818L59.3935 15.1203L62.8261 18.913L68.6072 14.0745L65.1745 10.2818ZM63.8775 15.0642C63.1291 13.9477 62.3038 12.9705 61.1793 12.3031C59.9931 11.5992 58.6571 11.3446 57.1482 11.3446L55.4944 17.1122C56.2463 17.1122 56.6174 17.2266 56.9167 17.4042C57.2777 17.6185 57.7162 18.0354 58.3421 18.9691L63.8775 15.0642ZM57.102 11.3449C52.8512 11.4075 47.6404 14.701 46.2122 19.6819H52.2122C52.6416 18.1842 54.2226 17.1312 55.5407 17.1118L57.102 11.3449ZM46.2122 19.6819C44.7708 24.7086 47.9599 28.0603 52.4404 28.0603L54.0942 22.2927C52.6881 22.2927 51.7488 21.2979 52.2122 19.6819H46.2122ZM52.4404 28.0603C56.0711 28.0603 58.8822 26.341 61.3759 24.3505L58.1045 20.4259C56.2833 21.8797 55.3264 22.2927 54.0942 22.2927L52.4404 28.0603ZM56.9355 24.2832L59.9108 29.0807L65.5202 25.2906L62.5449 20.4932L56.9355 24.2832ZM60.8418 25.4274C58.2522 27.8098 55.3123 28.8534 52.2556 28.8534L50.6018 34.6209C55.2234 34.6209 60.2258 32.9582 64.5892 28.9439L60.8418 25.4274ZM52.2392 28.8534C48.8581 28.8711 46.658 27.9948 45.4775 26.5994C44.325 25.2371 43.8661 23.0527 44.8326 19.6819H38.8326C37.5064 24.307 37.9365 28.1706 40.2009 30.8473C42.4371 33.4907 46.1815 34.6441 50.6182 34.6209L52.2392 28.8534Z" fill="#31A040"/>
</g>
<path fill-rule="evenodd" clip-rule="evenodd" d="M55.6772 31.1665C54.2639 31.5551 52.8375 31.7373 51.4288 31.7373C48.2436 31.754 45.6803 31.0832 43.916 29.7416L49.4121 25.6538L55.7408 27.4775L55.6772 31.1665Z" fill="#31A040"/>
<path fill-rule="evenodd" clip-rule="evenodd" d="M64.7596 9.42459L59.857 13.071L53.5283 11.2474L53.5841 8.01747C55.0825 7.64187 56.6746 7.44775 58.3369 7.44775C60.8924 7.44775 63.0594 8.06085 64.7596 9.42459Z" fill="#31A040"/>
<path d="M12.2399 41.632V42.08C12.2079 42.528 12.0799 42.944 11.8559 43.344C11.6319 43.696 11.3759 44.032 11.0719 44.32C11.4719 44.432 11.8719 44.576 12.3039 44.72C12.7359 44.896 13.1999 45.104 13.7119 45.36L12.3359 47.168C11.4719 46.624 10.6239 46.256 9.77588 46.048C9.45588 45.984 9.13589 45.92 8.78389 45.872C8.65588 45.92 8.54388 45.968 8.41588 46.016C8.06388 46.16 7.59988 46.288 7.05588 46.416C6.47988 46.56 5.88788 46.688 5.26388 46.784C4.62388 46.912 3.98388 46.992 3.34388 47.056C2.68788 47.136 2.09588 47.168 1.58388 47.168L0.799885 45.264C2.70388 45.12 4.31988 44.912 5.64788 44.64C6.95988 44.384 7.90388 44.064 8.46388 43.712H1.71188V41.632H5.55188V40.48H8.51188V41.632H12.2399ZM5.42388 50.24V49.632H0.431885V47.632H13.6639V49.632H8.51188V50.24H12.9119V53.936H10.1119V52.4H1.03988V50.24H5.42388ZM24.1703 47.184C24.2183 46.64 24.2663 46.048 24.2983 45.376C24.3303 44.736 24.3463 44.16 24.3463 43.68H15.4503V41.12H27.1463C27.1463 41.824 27.1303 42.448 27.1303 42.992C27.1143 43.568 27.0983 44.08 27.0983 44.56C27.0663 45.056 27.0503 45.52 27.0343 45.936C27.0023 46.368 26.9703 46.784 26.9383 47.184H24.1703ZM19.6583 53.936V50.592H14.6663V48.032H27.8983V50.592H22.7463V53.936H19.6583ZM35.5567 44.048C36.5807 44.048 37.3007 43.984 37.7167 43.84C38.1167 43.712 38.3247 43.536 38.3247 43.312C38.3247 43.104 38.1167 42.928 37.7167 42.784C37.3007 42.656 36.5807 42.576 35.5567 42.576C34.5007 42.576 33.7807 42.656 33.3967 42.784C32.9807 42.928 32.7887 43.104 32.7887 43.312C32.7887 43.536 32.9807 43.712 33.3967 43.84C33.7807 43.984 34.5007 44.048 35.5567 44.048ZM35.5567 46.016C34.9647 46.016 34.4047 46 33.9087 45.968V46.736H37.1887V45.968C36.6926 46 36.1487 46.016 35.5567 46.016ZM31.1087 45.328C30.2287 44.896 29.8127 44.256 29.8127 43.392C29.8127 42.544 30.2607 41.872 31.1727 41.36C32.0687 40.864 33.5247 40.608 35.5567 40.608C37.5727 40.608 39.0287 40.864 39.9407 41.36C40.8367 41.872 41.3007 42.544 41.3007 43.392C41.3007 44.256 40.8527 44.912 39.9887 45.344V46.736H42.1327V48.752H28.9007V46.736H31.1087V45.328ZM35.5727 54.4C34.4047 54.4 33.4287 54.352 32.6607 54.256C31.8767 54.144 31.2527 54 30.7887 53.776C30.3087 53.568 29.9887 53.296 29.7967 52.976C29.5887 52.672 29.4927 52.304 29.4927 51.856C29.4927 51.456 29.5887 51.088 29.7967 50.752C29.9887 50.432 30.3407 50.16 30.8206 49.936C31.3007 49.712 31.9247 49.536 32.7087 49.408C33.4767 49.296 34.4207 49.232 35.5727 49.232C36.6926 49.232 37.6527 49.296 38.4367 49.408C39.2047 49.536 39.8287 49.712 40.3087 49.936C40.7887 50.16 41.1247 50.432 41.3487 50.752C41.5407 51.088 41.6527 51.456 41.6527 51.856C41.6527 52.304 41.5407 52.672 41.3487 52.976C41.1407 53.296 40.8047 53.568 40.3407 53.776C39.8607 54 39.2367 54.144 38.4687 54.256C37.6847 54.352 36.7247 54.4 35.5727 54.4ZM35.5727 52.4C36.6926 52.4 37.4767 52.368 37.9087 52.288C38.3247 52.224 38.5327 52.08 38.5327 51.856C38.5327 51.664 38.3087 51.536 37.8766 51.44C37.4287 51.36 36.6607 51.312 35.5727 51.312C34.4527 51.312 33.6847 51.36 33.2527 51.44C32.8047 51.536 32.5967 51.664 32.5967 51.856C32.5967 52.08 32.8047 52.224 33.2367 52.288C33.6527 52.368 34.4207 52.4 35.5727 52.4ZM51.151 44.288V43.12H48.399V44.288H51.151ZM45.679 43.12H43.839V41.12H55.727V43.12H53.871V44.288H55.727V46.288H43.839V44.288H45.679V43.12ZM48.127 49.408V48.848H43.135V46.768H56.367V48.848H51.215V49.408H55.583V53.92H43.823V49.408H48.127ZM52.783 52V51.328H46.623V52H52.783ZM73.1774 41.152V42.08C73.1454 42.432 73.0014 42.784 72.7774 43.104C72.5534 43.424 72.2654 43.696 71.9614 43.968C72.2494 44.016 72.5534 44.064 72.8574 44.112C73.3374 44.224 73.8654 44.352 74.4254 44.512L73.6094 46.384C73.1294 46.224 72.6334 46.08 72.1214 45.968C71.5934 45.872 71.0814 45.792 70.5694 45.728C70.0574 45.68 69.5614 45.648 69.0814 45.648C68.8734 45.664 68.6814 45.664 68.4894 45.68C67.7054 45.92 66.7934 46.08 65.7854 46.144C64.6974 46.24 63.6254 46.304 62.5854 46.336L61.8174 44.32C63.8014 44.224 65.4494 44.112 66.7774 43.952C68.0894 43.808 68.9534 43.6 69.4014 43.312H62.6494V41.152H73.1774ZM66.3614 49.28V48.848H61.3694V46.768H74.6014V48.848H69.4494V49.28C69.9774 49.296 70.4734 49.36 70.9054 49.408C71.6734 49.536 72.2974 49.712 72.7774 49.936C73.2574 50.16 73.5934 50.432 73.8174 50.752C74.0094 51.088 74.1214 51.456 74.1214 51.856C74.1214 52.304 74.0094 52.672 73.8174 52.976C73.6094 53.296 73.2734 53.568 72.8094 53.776C72.3294 54 71.7054 54.144 70.9374 54.256C70.1534 54.352 69.1934 54.4 68.0414 54.4C66.8734 54.4 65.8974 54.352 65.1294 54.256C64.3454 54.144 63.7214 54 63.2574 53.776C62.7774 53.568 62.4574 53.296 62.2654 52.976C62.0574 52.672 61.9614 52.304 61.9614 51.856C61.9614 51.456 62.0574 51.088 62.2654 50.752C62.4574 50.432 62.8094 50.16 63.2894 49.936C63.7694 49.712 64.3934 49.536 65.1774 49.408C65.5294 49.36 65.9134 49.312 66.3614 49.28ZM68.0414 52.4C69.1614 52.4 69.9454 52.368 70.3774 52.288C70.7934 52.224 71.0014 52.08 71.0014 51.856C71.0014 51.664 70.7774 51.536 70.3454 51.44C69.8974 51.36 69.1294 51.312 68.0414 51.312C66.9214 51.312 66.1534 51.36 65.7214 51.44C65.2734 51.536 65.0654 51.664 65.0654 51.856C65.0654 52.08 65.2734 52.224 65.7054 52.288C66.1214 52.368 66.8894 52.4 68.0414 52.4ZM85.1078 49.264C85.1718 48.304 85.2198 47.344 85.2518 46.368C85.2678 45.408 85.2838 44.512 85.2838 43.68H76.3878V41.12H88.0838V43.552C88.0678 44.288 88.0518 44.96 88.0358 45.6C88.0198 46.24 88.0038 46.864 87.9878 47.44C87.9558 48.048 87.9078 48.656 87.8758 49.264H85.1078ZM75.6038 53.728V51.168H79.7318V46.896H82.6278V51.168H88.8358V53.728H75.6038ZM97.4222 41.328V42.72C97.4222 43.728 97.3102 44.72 97.0702 45.664H99.5662V41.04H102.366V53.936H99.5662V48.048C99.4061 48.08 99.1982 48.112 98.9582 48.112C98.7022 48.144 98.4461 48.16 98.1582 48.176C97.8702 48.192 97.5982 48.208 97.3262 48.208C97.0382 48.224 96.7822 48.224 96.5582 48.224H96.1742C96.0942 48.368 96.0302 48.528 95.9502 48.672C95.4702 49.584 94.8782 50.432 94.2062 51.216C93.5181 52.016 92.7502 52.704 91.9022 53.312L89.8062 51.312C91.2942 50.192 92.4302 48.976 93.1982 47.664C93.9662 46.384 94.3662 45.12 94.4142 43.888H90.2862V41.328H97.4222ZM104.208 45.904H107.632V43.648H104.288V41.168H110.272V48.304H106.848V50.752H110.64V53.232H104.208V45.904ZM114.816 48.192C114.544 48.256 114.24 48.32 113.92 48.336V53.984H111.376V41.04H113.92V45.616H114.816V41.04H117.344V53.984H114.816V48.192ZM122.123 51.36C122.763 50.576 123.291 49.84 123.707 49.136C124.123 48.464 124.443 47.744 124.699 46.976C124.923 46.24 125.099 45.408 125.195 44.496C125.275 43.6 125.307 42.544 125.307 41.328H128.139C128.139 42.8 128.075 44.08 127.979 45.168C127.915 45.712 127.835 46.24 127.739 46.736C128.459 47.472 129.099 48.192 129.659 48.896C130.235 49.664 130.747 50.464 131.195 51.296L129.179 53.104C128.939 52.656 128.699 52.224 128.443 51.824C128.187 51.44 127.915 51.072 127.627 50.704C127.355 50.368 127.051 50.016 126.779 49.68C126.603 50.064 126.411 50.416 126.203 50.768C125.691 51.584 125.067 52.416 124.299 53.28L122.123 51.36ZM136.811 45.312V48.08C136.555 48.08 136.219 48.112 135.835 48.144C135.483 48.192 135.147 48.256 134.843 48.336V53.92H131.883V41.04H134.843V45.6C135.147 45.504 135.483 45.424 135.851 45.376C136.251 45.344 136.571 45.312 136.811 45.312ZM141.59 43.6C141.43 43.6 141.27 43.648 141.126 43.728C140.966 43.824 140.838 43.984 140.726 44.24C140.614 44.496 140.534 44.864 140.47 45.328C140.39 45.808 140.358 46.448 140.358 47.216C140.358 48.016 140.39 48.64 140.47 49.104C140.534 49.584 140.614 49.952 140.726 50.208C140.838 50.464 140.966 50.64 141.126 50.704C141.27 50.8 141.43 50.832 141.59 50.832C141.734 50.832 141.878 50.8 142.038 50.704C142.182 50.64 142.31 50.464 142.438 50.208C142.534 49.952 142.63 49.584 142.71 49.104C142.774 48.64 142.822 48.016 142.822 47.216C142.822 46.448 142.774 45.808 142.71 45.328C142.63 44.864 142.534 44.496 142.438 44.24C142.31 43.984 142.182 43.824 142.038 43.728C141.878 43.648 141.734 43.6 141.59 43.6ZM141.59 40.96C142.198 40.96 142.742 41.072 143.238 41.296C143.718 41.536 144.118 41.904 144.47 42.4C144.806 42.912 145.078 43.552 145.27 44.336C145.446 45.136 145.542 46.096 145.542 47.216C145.542 48.368 145.446 49.328 145.27 50.112C145.078 50.912 144.806 51.552 144.47 52.048C144.118 52.56 143.718 52.912 143.238 53.136C142.742 53.36 142.198 53.472 141.59 53.472C140.966 53.472 140.422 53.36 139.942 53.136C139.446 52.912 139.03 52.56 138.694 52.048C138.342 51.552 138.086 50.912 137.91 50.112C137.718 49.328 137.638 48.368 137.638 47.216C137.638 46.096 137.718 45.136 137.91 44.336C138.086 43.552 138.342 42.912 138.694 42.4C139.03 41.904 139.446 41.536 139.942 41.296C140.422 41.072 140.966 40.96 141.59 40.96ZM146.758 53.92V41.04H149.718V53.92H146.758ZM160.91 47.68C161.518 47.68 162.062 47.664 162.574 47.632C163.054 47.616 163.486 47.568 163.87 47.504V49.872C163.582 49.968 163.182 50.048 162.686 50.08C162.174 50.144 161.614 50.16 161.006 50.16H151.982V41.04H163.63V43.52H154.702V44.352H163.47V46.832H154.702V47.68H160.91ZM151.198 53.728V51.328H164.43V53.728H151.198Z" fill="#31A040"/>
</svg>
